<svg width="256" height="256" viewBox="0 0 256 256" fill="none" xmlns="http://www.w3.org/2000/svg">
<rect width="256" height="256" fill="white"/>
<path d="M206.756 89.2191L207.097 88.614L206.775 87.9986L192.471 60.638L192.112 59.9512H191.337H130.407H128.157L129.307 61.8848L171.955 133.616L140.316 188.423H117.29L60.5581 87.9389L72.7213 68.5772H96.2424L138.845 143.199L139.95 145.136L141.065 143.204L144.541 137.178L144.908 136.542L144.543 135.904L101.553 60.5964L101.184 59.9512H100.441H68.7377H68.0308L67.6544 60.5496L50.9935 87.0407L50.5873 87.6865L50.9624 88.351L111.953 196.398L112.32 197.049H113.067H144.491H145.23L145.599 196.409L181.518 134.206L181.893 133.556L181.51 132.912L143.245 68.5772H186.966L197.353 88.4479L187.765 105.497L187.402 106.141L187.779 106.777L191.315 112.742L192.445 114.648L193.531 112.717L206.756 89.2191Z" fill="#0047FF" stroke="#0047FF" stroke-width="2.55936"/>
</svg>
