<svg width="32" height="32" viewBox="0 0 32 32" fill="none" xmlns="http://www.w3.org/2000/svg">
<rect width="32" height="32" fill="white"/>
<path d="M28.9601 9.5767L29.0158 9.47775L28.9632 9.37713L26.6242 4.90305L26.5655 4.79074H26.4388H16.4753H16.1075L16.2955 5.10694L23.2693 16.8365L18.0957 25.7987H14.3304L5.0535 9.36736L7.04245 6.20129H10.8887L17.8551 18.4036L18.0359 18.7203L18.2181 18.4044L18.7865 17.419L18.8465 17.315L18.787 17.2107L11.757 4.89626L11.6968 4.79074H11.5753H6.39105H6.27546L6.21392 4.8886L3.48949 9.22048L3.42307 9.32609L3.4844 9.43474L13.4576 27.1029L13.5177 27.2093H13.6399H18.7784H18.8992L18.9596 27.1046L24.8331 16.933L24.8944 16.8268L24.8317 16.7214L18.5746 6.20129H25.724L27.4225 9.45058L25.8546 12.2385L25.7954 12.3438L25.857 12.4477L26.4352 13.4232L26.6199 13.7349L26.7975 13.4192L28.9601 9.5767Z" fill="#0047FF" stroke="#0047FF" stroke-width="0.418511"/>
</svg>
