<svg width="199" height="35" viewBox="0 0 199 35" fill="none" xmlns="http://www.w3.org/2000/svg">
<path d="M35.2455 9.1524L35.3205 9.0192L35.2497 8.88374L32.1011 2.86095L32.022 2.70976H31.8514H18.4391H17.9439L18.197 3.13541L27.5848 18.9252L20.6203 30.9897H15.5517L3.06357 8.87059L5.74101 4.60858H10.9186L20.2965 21.0348L20.5399 21.4611L20.7851 21.0359L21.5503 19.7093L21.6311 19.5693L21.5509 19.4289L12.0876 2.8518L12.0065 2.70976H11.8429H4.86412H4.70851L4.62567 2.84149L0.958174 8.67286L0.868756 8.81504L0.951318 8.9613L14.3768 32.7453L14.4577 32.8885H14.6221H21.5394H21.702L21.7833 32.7477L29.69 19.0551L29.7725 18.9121L29.6881 18.7702L21.2651 4.60858H30.8893L33.1757 8.98262L31.065 12.7356L30.9853 12.8773L31.0682 13.0173L31.8466 14.3304L32.0952 14.7499L32.3344 14.325L35.2455 9.1524Z" fill="white" stroke="white" stroke-width="0.56338"/>
<path d="M67.912 4.516L58.216 26.5H55.496L45.8 4.516H48.52L56.872 23.428L65.192 4.516H67.912ZM78.4788 24.74C79.4601 24.74 80.4414 24.548 81.4228 24.164C82.4254 23.78 83.1828 23.3107 83.6948 22.756L85.1667 24.324C84.4628 25.092 83.4708 25.7107 82.1908 26.18C80.9321 26.6493 79.7054 26.884 78.5108 26.884C77.0388 26.884 75.6628 26.5107 74.3828 25.764C73.1028 25.0173 72.0681 23.9827 71.2788 22.66C70.5108 21.316 70.1268 19.8227 70.1268 18.18C70.1268 16.58 70.4894 15.1187 71.2148 13.796C71.9614 12.4733 72.9534 11.4387 74.1908 10.692C75.4494 9.94533 76.8148 9.572 78.2868 9.572C80.7614 9.572 82.6814 10.436 84.0468 12.164C85.4334 13.892 86.1268 16.2173 86.1268 19.14H72.5908C72.7614 20.7827 73.3801 22.1267 74.4468 23.172C75.5348 24.2173 76.8788 24.74 78.4788 24.74ZM78.3828 11.716C76.8894 11.716 75.6094 12.2067 74.5428 13.188C73.4761 14.148 72.8361 15.4173 72.6228 16.996H83.7588C83.5881 15.4173 83.0441 14.148 82.1268 13.188C81.2094 12.2067 79.9614 11.716 78.3828 11.716ZM97.999 9.572C99.215 9.572 100.292 9.83867 101.231 10.372C102.17 10.9053 102.895 11.6627 103.407 12.644C103.94 13.604 104.207 14.7133 104.207 15.972V26.5H101.807V16.292C101.807 14.9267 101.423 13.828 100.655 12.996C99.887 12.1427 98.895 11.716 97.679 11.716C96.7617 11.716 95.9083 11.908 95.119 12.292C94.3297 12.676 93.7003 13.1987 93.231 13.86C92.783 14.5 92.559 15.204 92.559 15.972V26.5H90.159V9.956H92.559V12.58C93.0497 11.684 93.7857 10.9587 94.767 10.404C95.7483 9.84933 96.8257 9.572 97.999 9.572ZM116.962 25.828C116.066 26.532 115.042 26.884 113.89 26.884C112.716 26.884 111.746 26.4893 110.978 25.7C110.231 24.9107 109.858 23.8973 109.858 22.66V12.1H107.266V9.956H109.858V5.412H112.258V9.956H116.322V12.1H112.258V22.66C112.258 23.2573 112.428 23.7587 112.77 24.164C113.132 24.548 113.559 24.74 114.05 24.74C114.412 24.74 114.743 24.676 115.042 24.548C115.34 24.42 115.586 24.26 115.778 24.068L116.962 25.828ZM134.073 9.956V26.5H131.673V23.876C131.182 24.772 130.446 25.4973 129.465 26.052C128.484 26.6067 127.406 26.884 126.233 26.884C125.017 26.884 123.94 26.6173 123.001 26.084C122.062 25.5507 121.326 24.804 120.793 23.844C120.281 22.8627 120.025 21.7427 120.025 20.484V9.956H122.425V20.164C122.425 21.5293 122.809 22.6387 123.577 23.492C124.345 24.324 125.337 24.74 126.553 24.74C127.47 24.74 128.324 24.548 129.113 24.164C129.902 23.78 130.521 23.268 130.969 22.628C131.438 21.9667 131.673 21.252 131.673 20.484V9.956H134.073ZM142.028 13.188C142.518 12.0787 143.329 11.204 144.46 10.564C145.59 9.90267 146.913 9.572 148.428 9.572V11.716C147.19 11.716 146.081 11.9507 145.1 12.42C144.14 12.8893 143.382 13.5507 142.828 14.404C142.294 15.236 142.028 16.1853 142.028 17.252V26.5H139.628V9.956H142.028V13.188ZM159.291 24.74C160.273 24.74 161.254 24.548 162.235 24.164C163.238 23.78 163.995 23.3107 164.507 22.756L165.979 24.324C165.275 25.092 164.283 25.7107 163.003 26.18C161.745 26.6493 160.518 26.884 159.323 26.884C157.851 26.884 156.475 26.5107 155.195 25.764C153.915 25.0173 152.881 23.9827 152.091 22.66C151.323 21.316 150.939 19.8227 150.939 18.18C150.939 16.58 151.302 15.1187 152.027 13.796C152.774 12.4733 153.766 11.4387 155.003 10.692C156.262 9.94533 157.627 9.572 159.099 9.572C161.574 9.572 163.494 10.436 164.859 12.164C166.246 13.892 166.939 16.2173 166.939 19.14H153.403C153.574 20.7827 154.193 22.1267 155.259 23.172C156.347 24.2173 157.691 24.74 159.291 24.74ZM159.195 11.716C157.702 11.716 156.422 12.2067 155.355 13.188C154.289 14.148 153.649 15.4173 153.435 16.996H164.571C164.401 15.4173 163.857 14.148 162.939 13.188C162.022 12.2067 160.774 11.716 159.195 11.716ZM189.352 15.492L197.768 26.5H194.696L187.816 17.508L180.936 26.5H177.896L186.312 15.524L177.896 4.516H180.968L187.848 13.508L194.728 4.516H197.768L189.352 15.492Z" fill="white"/>
</svg>
